<svg width="260" height="250" viewBox="0 0 260 250" fill="none" xmlns="http://www.w3.org/2000/svg">
<path d="M210.142 235.108L210.141 235.109L210.142 235.108Z" fill="white"/>
<path d="M259.986 131.811C259.983 131.776 259.976 131.743 259.971 131.708C259.956 131.582 259.935 131.455 259.907 131.331C259.896 131.281 259.883 131.232 259.87 131.183C259.838 131.063 259.8 130.944 259.755 130.827C259.744 130.799 259.739 130.77 259.727 130.741L240.128 82.1784C240.111 82.1364 240.087 82.0994 240.069 82.059C240.027 81.9648 239.981 81.8737 239.932 81.7831C239.887 81.7016 239.841 81.6227 239.791 81.5457C239.737 81.4612 239.679 81.3807 239.617 81.3002C239.56 81.2263 239.503 81.155 239.442 81.0856C239.374 81.0102 239.304 80.9388 239.23 80.8685C239.164 80.8047 239.096 80.744 239.025 80.6852C238.986 80.6529 238.953 80.6154 238.912 80.584C238.868 80.5506 238.819 80.5263 238.774 80.4949C238.703 80.4453 238.632 80.3988 238.557 80.3547C238.462 80.2975 238.365 80.2444 238.266 80.1968C238.195 80.1619 238.123 80.13 238.049 80.0996C237.943 80.0561 237.838 80.0171 237.729 79.9837C237.653 79.9599 237.576 79.9397 237.499 79.9204C237.39 79.8941 237.282 79.8718 237.172 79.8551C237.088 79.8425 237.004 79.8329 236.919 79.8258C236.814 79.8172 236.709 79.8121 236.604 79.8121C236.556 79.8121 236.509 79.8045 236.461 79.806C236.414 79.8076 236.369 79.8187 236.323 79.8222C236.224 79.8293 236.126 79.8415 236.027 79.8562C235.932 79.8708 235.838 79.888 235.744 79.9093C235.65 79.9306 235.559 79.9569 235.467 79.9857C235.372 80.0156 235.279 80.0475 235.188 80.0839C235.101 80.1183 235.017 80.1573 234.932 80.1988C234.84 80.2439 234.75 80.292 234.662 80.3436C234.623 80.3669 234.582 80.3831 234.544 80.4074L190.398 108.758C190.373 108.774 190.353 108.794 190.329 108.81C190.223 108.881 190.121 108.957 190.024 109.038C189.985 109.07 189.947 109.103 189.91 109.136C189.813 109.223 189.723 109.314 189.636 109.41C189.613 109.435 189.588 109.458 189.566 109.484C189.462 109.605 189.366 109.733 189.279 109.866C189.257 109.899 189.239 109.933 189.219 109.966C189.154 110.071 189.095 110.178 189.041 110.288C189.019 110.334 188.998 110.379 188.977 110.425C188.929 110.535 188.887 110.647 188.849 110.762C188.836 110.802 188.821 110.841 188.809 110.881C188.766 111.027 188.729 111.176 188.704 111.329L170.372 222.502V222.503C170.106 224.122 170.565 225.766 171.634 227.014L184.082 241.552C184.107 241.581 184.134 241.605 184.159 241.632C184.176 241.651 184.189 241.672 184.207 241.69C184.235 241.72 184.266 241.746 184.294 241.774C184.34 241.819 184.385 241.864 184.433 241.906C184.486 241.954 184.542 242 184.598 242.044C184.646 242.082 184.694 242.121 184.743 242.157C184.803 242.2 184.865 242.24 184.926 242.279C184.976 242.311 185.026 242.343 185.077 242.373C185.142 242.411 185.208 242.444 185.276 242.477C185.327 242.503 185.379 242.53 185.43 242.553C185.5 242.584 185.572 242.611 185.644 242.637C185.696 242.657 185.748 242.678 185.8 242.695C185.876 242.72 185.953 242.739 186.03 242.758C186.081 242.772 186.132 242.787 186.182 242.798C186.268 242.816 186.355 242.828 186.442 242.84C186.486 242.846 186.53 242.856 186.575 242.86C186.705 242.874 186.837 242.881 186.969 242.881C186.97 242.881 186.971 242.881 186.973 242.881C186.973 242.881 186.973 242.881 186.974 242.881C187.115 242.881 187.258 242.871 187.4 242.855C187.445 242.85 187.49 242.841 187.534 242.835C187.598 242.825 187.661 242.819 187.725 242.806C187.754 242.8 187.782 242.79 187.811 242.783C187.843 242.776 187.875 242.773 187.907 242.765L206.494 238.068C208.091 237.664 209.419 236.586 210.14 235.11L259.617 133.814C259.685 133.676 259.741 133.534 259.791 133.39C259.805 133.349 259.816 133.307 259.829 133.266C259.863 133.152 259.893 133.038 259.917 132.921C259.928 132.871 259.937 132.821 259.946 132.771C259.965 132.651 259.979 132.53 259.987 132.409C259.989 132.369 259.994 132.33 259.996 132.29C260.004 132.129 260 131.97 259.986 131.811ZM237.022 94.7772L249.666 126.107L229.104 119.588L237.022 94.7772ZM229.779 92.4803L221.861 117.291L213.85 114.75L201.299 110.77L229.779 92.4803ZM185.427 231.448L178.027 222.806L195.494 116.88L219.557 124.51L185.427 231.448ZM203.718 230.953L192.669 233.745L226.799 126.806L237.24 130.117L250.861 134.436L203.718 230.953Z" fill="white"/>
<path d="M87.1472 224.513L80.2785 187.268C79.8992 185.21 77.9161 183.845 75.8539 184.227C73.7896 184.604 72.4241 186.579 72.803 188.636L79.4944 224.921L72.8923 232.933L38.7154 132.452L44.7675 130.407L61.0506 124.905L68.5211 165.415C68.9004 167.473 70.8819 168.835 72.9457 168.456C75.0099 168.079 76.3754 166.104 75.9966 164.047L67.738 119.263L67.7375 119.261L67.7309 119.226C67.703 119.075 67.6639 118.928 67.6187 118.783C67.6055 118.74 67.5882 118.699 67.5735 118.657C67.5344 118.546 67.4907 118.438 67.4425 118.331C67.4201 118.283 67.3973 118.236 67.3734 118.189C67.3186 118.082 67.2586 117.98 67.1947 117.879C67.1723 117.843 67.152 117.807 67.1281 117.773C67.0382 117.643 66.9418 117.517 66.8361 117.4C66.8113 117.372 66.7833 117.346 66.7579 117.319C66.6721 117.228 66.5822 117.141 66.4873 117.058C66.4482 117.025 66.408 116.992 66.3669 116.959C66.2699 116.881 66.1689 116.809 66.0638 116.741C66.0384 116.724 66.016 116.704 65.9901 116.688L23.5404 90.5443C23.5023 90.5205 23.4607 90.5058 23.4226 90.4835C23.3327 90.4324 23.2408 90.3854 23.1468 90.3423C23.0625 90.3028 22.9782 90.2664 22.8919 90.2335C22.799 90.1981 22.705 90.1677 22.6091 90.1399C22.5172 90.113 22.4257 90.0887 22.3323 90.069C22.2379 90.0488 22.1429 90.0336 22.0464 90.0209C21.9484 90.0078 21.8509 89.9981 21.7524 89.9926C21.7052 89.99 21.66 89.9799 21.6127 89.9789C21.5599 89.9779 21.5091 89.9865 21.4573 89.9875C21.368 89.9895 21.2796 89.9941 21.1907 90.0027C21.0739 90.0133 20.9592 90.0285 20.8454 90.0498C20.7799 90.0619 20.7159 90.0761 20.6514 90.0918C20.5214 90.1232 20.394 90.1596 20.2691 90.2036C20.2188 90.2214 20.169 90.2411 20.1198 90.2608C19.9877 90.314 19.8593 90.3737 19.7348 90.441C19.6902 90.4653 19.6465 90.4906 19.6033 90.5164C19.4804 90.5898 19.3626 90.6683 19.2489 90.7548C19.226 90.7721 19.2006 90.7847 19.1778 90.8024C19.1549 90.8206 19.1366 90.8429 19.1143 90.8611C19.0122 90.9462 18.9162 91.0353 18.8238 91.1309C18.7746 91.1815 18.7268 91.2322 18.6811 91.2843C18.606 91.3708 18.5359 91.4604 18.4684 91.5546C18.4176 91.6244 18.3693 91.6948 18.3241 91.7677C18.2713 91.8522 18.2231 91.9388 18.1774 92.0278C18.1317 92.1164 18.089 92.205 18.0509 92.2961C18.0332 92.3381 18.0088 92.3766 17.9925 92.4191L0.24696 138.905C0.235788 138.934 0.23071 138.964 0.220554 138.993C0.178913 139.11 0.142858 139.228 0.113405 139.347C0.10071 139.398 0.0890299 139.448 0.0788737 139.499C0.0534829 139.622 0.0352016 139.746 0.0225063 139.871C0.0189516 139.908 0.01235 139.944 0.00930311 139.981C-0.0018688 140.139 -0.00288443 140.297 0.00574841 140.455C0.00777967 140.496 0.0138734 140.537 0.0174281 140.577C0.0275844 140.697 0.0433267 140.816 0.0651627 140.934C0.0743033 140.986 0.0849674 141.036 0.0966472 141.085C0.123053 141.201 0.155554 141.316 0.193132 141.429C0.206335 141.47 0.217507 141.511 0.232234 141.551C0.285046 141.694 0.343953 141.836 0.414031 141.973L49.2409 237.322V237.322C49.9772 238.76 51.3036 239.795 52.8819 240.163L70.6249 244.294C70.6605 244.302 70.6965 244.305 70.7326 244.313C70.758 244.318 70.7824 244.327 70.8083 244.332C70.8626 244.342 70.9169 244.347 70.9708 244.354C71.0134 244.36 71.0556 244.368 71.0977 244.372C71.2282 244.385 71.3587 244.394 71.4887 244.394H71.4897C71.4913 244.394 71.4923 244.394 71.4938 244.394C71.6289 244.394 71.7635 244.386 71.897 244.372C71.9427 244.367 71.9874 244.357 72.0326 244.35C72.1215 244.338 72.2103 244.325 72.2977 244.306C72.35 244.295 72.4008 244.278 72.4521 244.265C72.5313 244.244 72.6105 244.224 72.6882 244.198C72.742 244.18 72.7938 244.158 72.8461 244.138C72.9198 244.11 72.9929 244.083 73.065 244.05C73.1178 244.026 73.1691 243.998 73.2204 243.971C73.2894 243.936 73.3575 243.901 73.4245 243.861C73.4758 243.832 73.5246 243.798 73.5738 243.766C73.6383 243.724 73.7013 243.681 73.7632 243.636C73.812 243.6 73.8587 243.561 73.9049 243.522C73.9638 243.474 74.0217 243.425 74.0781 243.372C74.1233 243.33 74.1669 243.286 74.2096 243.242C74.2406 243.211 74.2736 243.183 74.303 243.15C74.3213 243.129 74.3355 243.107 74.3538 243.086C74.3772 243.059 74.4031 243.036 74.4254 243.008L85.9889 228.976C87.0177 227.729 87.4397 226.103 87.1472 224.513ZM55.132 118.906L36.2749 125.278L28.5358 102.526L55.132 118.906ZM21.338 104.958L29.0766 127.711L10.2189 134.083L21.338 104.958ZM55.5647 233.009L9.18144 142.433L31.5166 134.885L65.6941 235.367L55.5647 233.009Z" fill="white"/>
<path d="M190.877 23.1715H182.868V15.1883C182.868 13.0959 181.166 11.4007 179.068 11.4007C176.969 11.4007 175.268 13.0964 175.268 15.1883V23.1715H167.259C165.16 23.1715 163.459 24.8671 163.459 26.959C163.459 29.0515 165.161 30.7466 167.259 30.7466H175.268V38.7303C175.268 40.8227 176.97 42.5179 179.068 42.5179C181.166 42.5179 182.868 40.8222 182.868 38.7303V30.7471H190.877C192.976 30.7471 194.677 29.0515 194.677 26.9595C194.678 24.8671 192.976 23.1715 190.877 23.1715Z" fill="white"/>
<path d="M60.9084 73.5363H52.8992V65.5531C52.8992 63.4607 51.1975 61.7656 49.0992 61.7656C47.0004 61.7656 45.2992 63.4612 45.2992 65.5531V73.5363H37.29C35.1912 73.5363 33.49 75.2319 33.49 77.3239C33.49 79.4158 35.1917 81.1115 37.29 81.1115H45.2992V89.0946C45.2992 91.1871 47.0009 92.8822 49.0992 92.8822C51.198 92.8822 52.8992 91.1866 52.8992 89.0946V81.1115H60.9084C63.0072 81.1115 64.7084 79.4158 64.7084 77.3239C64.7084 75.2319 63.0072 73.5363 60.9084 73.5363Z" fill="white"/>
<path d="M210.858 54.8585H208.754V52.761C208.754 50.6685 207.052 48.9734 204.954 48.9734C202.855 48.9734 201.154 50.6691 201.154 52.761V54.8585H199.05C196.951 54.8585 195.25 56.5542 195.25 58.6461C195.25 60.7386 196.951 62.4337 199.05 62.4337H201.154V64.5312C201.154 66.6237 202.856 68.3188 204.954 68.3188C207.053 68.3188 208.754 66.6232 208.754 64.5312V62.4337H210.858C212.957 62.4337 214.658 60.7381 214.658 58.6461C214.658 56.5542 212.957 54.8585 210.858 54.8585Z" fill="white"/>
<path d="M88.7941 25.8688H85.3414V22.4274C85.3414 20.335 83.6398 18.6398 81.5415 18.6398C79.4427 18.6398 77.7415 20.3355 77.7415 22.4274V25.8688H74.2889C72.1901 25.8688 70.4889 27.5644 70.4889 29.6564C70.4889 31.7483 72.1906 33.444 74.2889 33.444H77.7415V36.8848C77.7415 38.9773 79.4432 40.6724 81.5415 40.6724C83.6403 40.6724 85.3414 38.9768 85.3414 36.8848V33.444H88.7941C90.8929 33.444 92.594 31.7483 92.594 29.6564C92.5946 27.5639 90.8929 25.8688 88.7941 25.8688Z" fill="white"/>
<path d="M32.6151 6.38923H30.5107V4.29171C30.5107 2.19925 28.809 0.50412 26.7107 0.50412C24.6119 0.50412 22.9107 2.19975 22.9107 4.29171V6.38923H20.8058C18.707 6.38923 17.0059 8.08486 17.0059 10.1768C17.0059 12.2693 18.7075 13.9644 20.8058 13.9644H22.9102V16.0619C22.9102 18.1544 24.6119 19.8495 26.7102 19.8495C28.809 19.8495 30.5102 18.1539 30.5102 16.0619V13.9644H32.6145C34.7133 13.9644 36.4145 12.2683 36.4145 10.1768C36.415 8.08486 34.7138 6.38923 32.6151 6.38923Z" fill="white"/>
<path d="M242.932 6.38925H240.322V3.78759C240.322 1.69513 238.62 0 236.522 0C234.424 0 232.722 1.69563 232.722 3.78759V6.38925H230.112C228.013 6.38925 226.312 8.08488 226.312 10.1768C226.312 12.2693 228.014 13.9644 230.112 13.9644H232.722V16.5656C232.722 18.658 234.424 20.3532 236.522 20.3532C238.62 20.3532 240.322 18.6575 240.322 16.5656V13.9644H242.932C245.031 13.9644 246.732 12.2688 246.732 10.1768C246.732 8.08488 245.031 6.38925 242.932 6.38925Z" fill="white"/>
<path d="M180.042 72.2886C180.041 72.1676 180.034 72.0472 180.021 71.9277C180.016 71.8776 180.01 71.8285 180.002 71.7794C179.985 71.6574 179.96 71.537 179.931 71.4175C179.922 71.38 179.915 71.3426 179.904 71.3056C179.861 71.1523 179.809 71.0009 179.747 70.8541C179.734 70.8228 179.718 70.7934 179.703 70.7625C179.65 70.6451 179.591 70.5307 179.526 70.4189C179.5 70.3758 179.474 70.3338 179.447 70.2918C179.379 70.1855 179.305 70.0828 179.226 69.9825C179.208 69.9598 179.195 69.9345 179.176 69.9122L131.824 12.7765C131.795 12.742 131.761 12.7142 131.731 12.6808C131.662 12.6033 131.59 12.5305 131.516 12.4591C131.448 12.3943 131.38 12.3331 131.309 12.2738C131.232 12.2111 131.154 12.1534 131.073 12.0962C130.993 12.0405 130.914 11.9868 130.83 11.9383C130.749 11.8902 130.666 11.8466 130.581 11.8046C130.489 11.7591 130.397 11.7171 130.302 11.6796C130.26 11.6629 130.221 11.6396 130.179 11.6244C130.134 11.6082 130.087 11.6011 130.042 11.587C129.945 11.5561 129.848 11.5293 129.748 11.5065C129.655 11.4852 129.563 11.4665 129.469 11.4523C129.374 11.4377 129.279 11.4275 129.182 11.4199C129.084 11.4124 128.988 11.4078 128.89 11.4083C128.796 11.4083 128.704 11.4129 128.61 11.4199C128.51 11.4275 128.411 11.4382 128.312 11.4534C128.222 11.4675 128.132 11.4852 128.042 11.506C127.94 11.5293 127.84 11.5566 127.741 11.5885C127.696 11.6027 127.651 11.6092 127.607 11.6249C127.566 11.6401 127.528 11.6624 127.488 11.6786C127.391 11.7171 127.297 11.7601 127.203 11.8061C127.12 11.8476 127.038 11.8907 126.959 11.9372C126.874 11.9873 126.793 12.0415 126.712 12.0977C126.632 12.1539 126.554 12.2116 126.479 12.2728C126.407 12.332 126.339 12.3943 126.271 12.4596C126.196 12.531 126.125 12.6033 126.057 12.6803C126.027 12.7137 125.993 12.7415 125.964 12.7765L106.328 36.4692C104.991 38.0819 105.219 40.4694 106.838 41.8021C108.455 43.1349 110.851 42.9066 112.188 41.294L125.095 25.7215V68.5354H89.6105L97.3252 59.2267C98.6618 57.614 98.4338 55.226 96.8154 53.8938C95.1975 52.5611 92.8016 52.7893 91.465 54.402L78.6117 69.9107C78.593 69.9329 78.5792 69.9582 78.5615 69.981C78.4823 70.0812 78.4086 70.1835 78.3406 70.2903C78.3137 70.3323 78.2873 70.3748 78.2619 70.4173C78.1964 70.5287 78.138 70.6436 78.0841 70.7605C78.0699 70.7914 78.0537 70.8212 78.0405 70.8521C77.978 70.9994 77.9262 71.1503 77.883 71.3036C77.8729 71.3406 77.8658 71.3785 77.8566 71.4155C77.8272 71.5349 77.8028 71.6554 77.785 71.7774C77.7779 71.827 77.7718 71.8766 77.7662 71.9257C77.7535 72.0456 77.7475 72.1656 77.7459 72.2866C77.7454 72.3286 77.7429 72.3696 77.7439 72.4111C77.7474 72.5634 77.7581 72.7168 77.7805 72.8692L100.917 230.701V230.702C101.187 232.541 102.249 234.158 103.832 235.138L126.886 249.428C126.912 249.444 126.94 249.454 126.967 249.47C126.995 249.486 127.019 249.507 127.047 249.522C127.105 249.555 127.166 249.578 127.226 249.607C127.291 249.639 127.356 249.672 127.423 249.7C127.517 249.74 127.613 249.772 127.71 249.804C127.774 249.824 127.836 249.848 127.901 249.866C128.01 249.895 128.12 249.915 128.23 249.935C128.285 249.944 128.339 249.959 128.393 249.966C128.559 249.987 128.726 250 128.893 250C129.06 250 129.227 249.988 129.393 249.966C129.448 249.959 129.502 249.944 129.557 249.934C129.666 249.914 129.777 249.895 129.885 249.865C129.95 249.848 130.013 249.824 130.077 249.803C130.173 249.771 130.269 249.74 130.363 249.7C130.43 249.672 130.495 249.639 130.561 249.607C130.62 249.578 130.681 249.554 130.739 249.522C130.767 249.507 130.792 249.487 130.82 249.47C130.846 249.454 130.874 249.444 130.9 249.428L153.955 235.138C155.538 234.157 156.6 232.539 156.869 230.701L180.007 72.8692C180.029 72.7168 180.04 72.5634 180.043 72.4111C180.045 72.3716 180.042 72.3301 180.042 72.2886ZM125.094 239.397L108.352 229.02L85.937 76.1111H125.094V239.397ZM132.694 25.7215L168.179 68.5354H132.694V25.7215ZM149.436 229.02L132.694 239.396V76.1111H171.851L149.436 229.02Z" fill="white"/>
</svg>
